<?xml version="1.0" encoding="UTF-8" standalone="no"?>
<!DOCTYPE svg PUBLIC "-//W3C//DTD SVG 1.1//EN"
 "http://www.w3.org/Graphics/SVG/1.1/DTD/svg11.dtd">
<!-- Generated by graphviz version 13.0.1 (20250615.1724)
 -->
<!-- Title: G Pages: 1 -->
<svg width="260pt" height="260pt"
 viewBox="0.00 0.00 260.00 260.00" xmlns="http://www.w3.org/2000/svg" xmlns:xlink="http://www.w3.org/1999/xlink">
<g id="graph0" class="graph" transform="scale(1 1) rotate(0) translate(4 256)">
<title>G</title>
<polygon fill="white" stroke="none" points="-4,4 -4,-256 256,-256 256,4 -4,4"/>
<!-- T_00 -->
<g id="node1" class="node">
<title>T_00</title>
<ellipse fill="lightgrey" stroke="black" cx="180" cy="-90" rx="18" ry="18"/>
<text xml:space="preserve" text-anchor="middle" x="180" y="-84.95" font-family="Times,serif" font-size="14.00">T</text>
</g>
<!-- E_01 -->
<g id="node10" class="node">
<title>E_01</title>
<ellipse fill="none" stroke="black" cx="180" cy="-162" rx="18" ry="18"/>
<text xml:space="preserve" text-anchor="middle" x="180" y="-156.95" font-family="Times,serif" font-size="14.00">E</text>
</g>
<!-- T_00&#45;&gt;E_01 -->
<g id="edge10" class="edge">
<title>T_00&#45;&gt;E_01</title>
<path fill="none" stroke="red" stroke-dasharray="5,2" d="M185.79,-107.15C186.67,-114.91 186.94,-124.43 186.62,-133.3"/>
<polygon fill="none" stroke="red" points="183.13,-133.03 185.91,-143.25 190.11,-133.53 183.13,-133.03"/>
</g>
<!-- T_20 -->
<g id="node2" class="node">
<title>T_20</title>
<ellipse fill="lightgrey" stroke="black" cx="72" cy="-90" rx="18" ry="18"/>
<text xml:space="preserve" text-anchor="middle" x="72" y="-84.95" font-family="Times,serif" font-size="14.00">T</text>
</g>
<!-- E_21 -->
<g id="node6" class="node">
<title>E_21</title>
<ellipse fill="lightgrey" stroke="black" cx="126" cy="-162" rx="18" ry="18"/>
<text xml:space="preserve" text-anchor="middle" x="126" y="-156.95" font-family="Times,serif" font-size="14.00">E</text>
</g>
<!-- T_20&#45;&gt;E_21 -->
<g id="edge11" class="edge">
<title>T_20&#45;&gt;E_21</title>
<path fill="none" stroke="red" stroke-dasharray="5,2" d="M85.79,-102.24C94.3,-111.31 104.86,-124.4 113.16,-135.93"/>
<polygon fill="none" stroke="red" points="110.08,-137.63 118.65,-143.87 115.84,-133.65 110.08,-137.63"/>
</g>
<!-- L_22 -->
<g id="node3" class="node">
<title>L_22</title>
<ellipse fill="lightgrey" stroke="black" cx="126" cy="-90" rx="18" ry="18"/>
<text xml:space="preserve" text-anchor="middle" x="126" y="-84.95" font-family="Times,serif" font-size="14.00">L</text>
</g>
<!-- L_22&#45;&gt;E_21 -->
<g id="edge12" class="edge">
<title>L_22&#45;&gt;E_21</title>
<path fill="none" stroke="red" stroke-dasharray="5,2" d="M131.79,-107.15C132.67,-114.91 132.94,-124.43 132.62,-133.3"/>
<polygon fill="none" stroke="red" points="129.13,-133.03 131.91,-143.25 136.11,-133.53 129.13,-133.03"/>
</g>
<!-- S_10 -->
<g id="node4" class="node">
<title>S_10</title>
<ellipse fill="lightgrey" stroke="black" cx="18" cy="-162" rx="18" ry="18"/>
<text xml:space="preserve" text-anchor="middle" x="18" y="-156.95" font-family="Times,serif" font-size="14.00">S</text>
</g>
<!-- G_11 -->
<g id="node9" class="node">
<title>G_11</title>
<ellipse fill="none" stroke="black" cx="99" cy="-234" rx="18" ry="18"/>
<text xml:space="preserve" text-anchor="middle" x="99" y="-228.95" font-family="Times,serif" font-size="14.00">G</text>
</g>
<!-- S_10&#45;&gt;G_11 -->
<g id="edge13" class="edge">
<title>S_10&#45;&gt;G_11</title>
<path fill="none" stroke="red" stroke-dasharray="5,2" d="M33.28,-172.12C46.75,-182.04 66.01,-198.23 80.32,-211.43"/>
<polygon fill="none" stroke="red" points="77.73,-213.79 87.4,-218.13 82.55,-208.71 77.73,-213.79"/>
</g>
<!-- K_12_1 -->
<g id="node5" class="node">
<title>K_12_1</title>
<ellipse fill="lightgrey" stroke="black" cx="72" cy="-162" rx="18" ry="18"/>
<text xml:space="preserve" text-anchor="middle" x="72" y="-156.95" font-family="Times,serif" font-size="14.00">K</text>
</g>
<!-- K_12_1&#45;&gt;G_11 -->
<g id="edge14" class="edge">
<title>K_12_1&#45;&gt;G_11</title>
<path fill="none" stroke="red" stroke-dasharray="5,2" d="M82.84,-176.82C87.01,-184.84 91.39,-195.22 94.79,-204.88"/>
<polygon fill="none" stroke="red" points="91.4,-205.79 97.78,-214.25 98.07,-203.66 91.4,-205.79"/>
</g>
<!-- E_21&#45;&gt;T_20 -->
<g id="edge3" class="edge">
<title>E_21&#45;&gt;T_20</title>
<path fill="none" stroke="black" d="M112.21,-149.75C103.77,-140.76 93.3,-127.79 85.03,-116.33"/>
<polygon fill="black" stroke="black" points="88.12,-114.65 79.55,-108.42 82.36,-118.63 88.12,-114.65"/>
</g>
<!-- E_21&#45;&gt;L_22 -->
<g id="edge4" class="edge">
<title>E_21&#45;&gt;L_22</title>
<path fill="none" stroke="black" d="M120.2,-144.76C119.33,-136.99 119.06,-127.46 119.39,-118.6"/>
<polygon fill="black" stroke="black" points="122.87,-118.88 120.1,-108.66 115.89,-118.38 122.87,-118.88"/>
</g>
<!-- E_21&#45;&gt;G_11 -->
<g id="edge15" class="edge">
<title>E_21&#45;&gt;G_11</title>
<path fill="none" stroke="red" stroke-dasharray="5,2" d="M125.25,-180.28C122.82,-188.89 118.92,-199.45 114.77,-208.85"/>
<polygon fill="none" stroke="red" points="111.64,-207.27 110.49,-217.8 117.96,-210.29 111.64,-207.27"/>
</g>
<!-- E_02 -->
<g id="node7" class="node">
<title>E_02</title>
<ellipse fill="none" stroke="black" cx="234" cy="-90" rx="18" ry="18"/>
<text xml:space="preserve" text-anchor="middle" x="234" y="-84.95" font-family="Times,serif" font-size="14.00">E</text>
</g>
<!-- K_12 -->
<g id="node8" class="node">
<title>K_12</title>
<ellipse fill="none" stroke="black" cx="234" cy="-18" rx="18" ry="18"/>
<text xml:space="preserve" text-anchor="middle" x="234" y="-12.95" font-family="Times,serif" font-size="14.00">K</text>
</g>
<!-- E_02&#45;&gt;K_12 -->
<g id="edge1" class="edge">
<title>E_02&#45;&gt;K_12</title>
<path fill="none" stroke="black" d="M234,-71.7C234,-64.41 234,-55.73 234,-47.54"/>
<polygon fill="black" stroke="black" points="237.5,-47.62 234,-37.62 230.5,-47.62 237.5,-47.62"/>
</g>
<!-- G_11&#45;&gt;S_10 -->
<g id="edge5" class="edge">
<title>G_11&#45;&gt;S_10</title>
<path fill="none" stroke="black" d="M83.68,-223.85C70.26,-213.97 51.12,-197.87 36.83,-184.72"/>
<polygon fill="black" stroke="black" points="39.43,-182.36 29.76,-178.03 34.62,-187.44 39.43,-182.36"/>
</g>
<!-- G_11&#45;&gt;K_12_1 -->
<g id="edge9" class="edge">
<title>G_11&#45;&gt;K_12_1</title>
<path fill="none" stroke="black" d="M88.16,-219.17C83.98,-211.15 79.6,-200.76 76.21,-191.1"/>
<polygon fill="black" stroke="black" points="79.59,-190.18 73.21,-181.72 72.92,-192.31 79.59,-190.18"/>
</g>
<!-- G_11&#45;&gt;E_21 -->
<g id="edge2" class="edge">
<title>G_11&#45;&gt;E_21</title>
<path fill="none" stroke="black" d="M99.76,-215.7C102.19,-207.08 106.08,-196.53 110.24,-187.13"/>
<polygon fill="black" stroke="black" points="113.36,-188.72 114.51,-178.19 107.04,-185.7 113.36,-188.72"/>
</g>
<!-- G_11&#45;&gt;E_01 -->
<g id="edge6" class="edge">
<title>G_11&#45;&gt;E_01</title>
<path fill="none" stroke="black" d="M112.38,-221.44C124.8,-210.7 143.54,-194.51 158.14,-181.89"/>
<polygon fill="black" stroke="black" points="160.18,-184.75 165.46,-175.57 155.6,-179.46 160.18,-184.75"/>
</g>
<!-- E_01&#45;&gt;T_00 -->
<g id="edge7" class="edge">
<title>E_01&#45;&gt;T_00</title>
<path fill="none" stroke="black" d="M174.2,-144.76C173.33,-136.99 173.06,-127.46 173.39,-118.6"/>
<polygon fill="black" stroke="black" points="176.87,-118.88 174.1,-108.66 169.89,-118.38 176.87,-118.88"/>
</g>
<!-- E_01&#45;&gt;E_02 -->
<g id="edge8" class="edge">
<title>E_01&#45;&gt;E_02</title>
<path fill="none" stroke="black" d="M190.67,-147.17C197.99,-137.68 207.88,-124.86 216.36,-113.86"/>
<polygon fill="black" stroke="black" points="219.09,-116.06 222.43,-106 213.55,-111.78 219.09,-116.06"/>
</g>
</g>
</svg>
