<?xml version="1.0" encoding="UTF-8" standalone="no"?>
<!DOCTYPE svg PUBLIC "-//W3C//DTD SVG 1.1//EN"
 "http://www.w3.org/Graphics/SVG/1.1/DTD/svg11.dtd">
<!-- Generated by graphviz version 13.0.1 (20250615.1724)
 -->
<!-- Title: G Pages: 1 -->
<svg width="422pt" height="260pt"
 viewBox="0.00 0.00 422.00 260.00" xmlns="http://www.w3.org/2000/svg" xmlns:xlink="http://www.w3.org/1999/xlink">
<g id="graph0" class="graph" transform="scale(1 1) rotate(0) translate(4 256)">
<title>G</title>
<polygon fill="white" stroke="none" points="-4,4 -4,-256 418,-256 418,4 -4,4"/>
<!-- L_22 -->
<g id="node1" class="node">
<title>L_22</title>
<ellipse fill="none" stroke="black" cx="234" cy="-90" rx="18" ry="18"/>
<text xml:space="preserve" text-anchor="middle" x="234" y="-84.95" font-family="Times,serif" font-size="14.00">L</text>
</g>
<!-- K_12_1 -->
<g id="node2" class="node">
<title>K_12_1</title>
<ellipse fill="none" stroke="black" cx="234" cy="-18" rx="18" ry="18"/>
<text xml:space="preserve" text-anchor="middle" x="234" y="-12.95" font-family="Times,serif" font-size="14.00">K</text>
</g>
<!-- L_22&#45;&gt;K_12_1 -->
<g id="edge1" class="edge">
<title>L_22&#45;&gt;K_12_1</title>
<path fill="none" stroke="black" d="M234,-71.7C234,-64.41 234,-55.73 234,-47.54"/>
<polygon fill="black" stroke="black" points="237.5,-47.62 234,-37.62 230.5,-47.62 237.5,-47.62"/>
</g>
<!-- S_10_2 -->
<g id="node3" class="node">
<title>S_10_2</title>
<ellipse fill="none" stroke="black" cx="72" cy="-162" rx="18" ry="18"/>
<text xml:space="preserve" text-anchor="middle" x="72" y="-156.95" font-family="Times,serif" font-size="14.00">S</text>
</g>
<!-- T_20_1 -->
<g id="node4" class="node">
<title>T_20_1</title>
<ellipse fill="none" stroke="black" cx="18" cy="-90" rx="18" ry="18"/>
<text xml:space="preserve" text-anchor="middle" x="18" y="-84.95" font-family="Times,serif" font-size="14.00">T</text>
</g>
<!-- S_10_2&#45;&gt;T_20_1 -->
<g id="edge2" class="edge">
<title>S_10_2&#45;&gt;T_20_1</title>
<path fill="none" stroke="black" d="M61.33,-147.17C54.01,-137.68 44.12,-124.86 35.64,-113.86"/>
<polygon fill="black" stroke="black" points="38.45,-111.78 29.57,-106 32.91,-116.06 38.45,-111.78"/>
</g>
<!-- T_00_1 -->
<g id="node13" class="node">
<title>T_00_1</title>
<ellipse fill="none" stroke="black" cx="72" cy="-90" rx="18" ry="18"/>
<text xml:space="preserve" text-anchor="middle" x="72" y="-84.95" font-family="Times,serif" font-size="14.00">T</text>
</g>
<!-- S_10_2&#45;&gt;T_00_1 -->
<g id="edge9" class="edge">
<title>S_10_2&#45;&gt;T_00_1</title>
<path fill="none" stroke="black" d="M72,-143.7C72,-136.41 72,-127.73 72,-119.54"/>
<polygon fill="black" stroke="black" points="75.5,-119.62 72,-109.62 68.5,-119.62 75.5,-119.62"/>
</g>
<!-- E_21_1 -->
<g id="node21" class="node">
<title>E_21_1</title>
<ellipse fill="none" stroke="black" cx="18" cy="-18" rx="18" ry="18"/>
<text xml:space="preserve" text-anchor="middle" x="18" y="-12.95" font-family="Times,serif" font-size="14.00">E</text>
</g>
<!-- T_20_1&#45;&gt;E_21_1 -->
<g id="edge16" class="edge">
<title>T_20_1&#45;&gt;E_21_1</title>
<path fill="none" stroke="black" d="M18,-71.7C18,-64.41 18,-55.73 18,-47.54"/>
<polygon fill="black" stroke="black" points="21.5,-47.62 18,-37.62 14.5,-47.62 21.5,-47.62"/>
</g>
<!-- E_01 -->
<g id="node5" class="node">
<title>E_01</title>
<ellipse fill="none" stroke="black" cx="180" cy="-162" rx="18" ry="18"/>
<text xml:space="preserve" text-anchor="middle" x="180" y="-156.95" font-family="Times,serif" font-size="14.00">E</text>
</g>
<!-- E_02 -->
<g id="node6" class="node">
<title>E_02</title>
<ellipse fill="none" stroke="black" cx="126" cy="-90" rx="18" ry="18"/>
<text xml:space="preserve" text-anchor="middle" x="126" y="-84.95" font-family="Times,serif" font-size="14.00">E</text>
</g>
<!-- E_01&#45;&gt;E_02 -->
<g id="edge3" class="edge">
<title>E_01&#45;&gt;E_02</title>
<path fill="none" stroke="black" d="M169.33,-147.17C162.01,-137.68 152.12,-124.86 143.64,-113.86"/>
<polygon fill="black" stroke="black" points="146.45,-111.78 137.57,-106 140.91,-116.06 146.45,-111.78"/>
</g>
<!-- T_00 -->
<g id="node17" class="node">
<title>T_00</title>
<ellipse fill="none" stroke="black" cx="180" cy="-90" rx="18" ry="18"/>
<text xml:space="preserve" text-anchor="middle" x="180" y="-84.95" font-family="Times,serif" font-size="14.00">T</text>
</g>
<!-- E_01&#45;&gt;T_00 -->
<g id="edge20" class="edge">
<title>E_01&#45;&gt;T_00</title>
<path fill="none" stroke="black" d="M180,-143.7C180,-136.41 180,-127.73 180,-119.54"/>
<polygon fill="black" stroke="black" points="183.5,-119.62 180,-109.62 176.5,-119.62 183.5,-119.62"/>
</g>
<!-- K_12 -->
<g id="node19" class="node">
<title>K_12</title>
<ellipse fill="none" stroke="black" cx="126" cy="-18" rx="18" ry="18"/>
<text xml:space="preserve" text-anchor="middle" x="126" y="-12.95" font-family="Times,serif" font-size="14.00">K</text>
</g>
<!-- E_02&#45;&gt;K_12 -->
<g id="edge13" class="edge">
<title>E_02&#45;&gt;K_12</title>
<path fill="none" stroke="black" d="M126,-71.7C126,-64.41 126,-55.73 126,-47.54"/>
<polygon fill="black" stroke="black" points="129.5,-47.62 126,-37.62 122.5,-47.62 129.5,-47.62"/>
</g>
<!-- E_21 -->
<g id="node7" class="node">
<title>E_21</title>
<ellipse fill="none" stroke="black" cx="234" cy="-162" rx="18" ry="18"/>
<text xml:space="preserve" text-anchor="middle" x="234" y="-156.95" font-family="Times,serif" font-size="14.00">E</text>
</g>
<!-- E_21&#45;&gt;L_22 -->
<g id="edge5" class="edge">
<title>E_21&#45;&gt;L_22</title>
<path fill="none" stroke="black" d="M234,-143.7C234,-136.41 234,-127.73 234,-119.54"/>
<polygon fill="black" stroke="black" points="237.5,-119.62 234,-109.62 230.5,-119.62 237.5,-119.62"/>
</g>
<!-- T_20 -->
<g id="node8" class="node">
<title>T_20</title>
<ellipse fill="none" stroke="black" cx="288" cy="-90" rx="18" ry="18"/>
<text xml:space="preserve" text-anchor="middle" x="288" y="-84.95" font-family="Times,serif" font-size="14.00">T</text>
</g>
<!-- E_21&#45;&gt;T_20 -->
<g id="edge4" class="edge">
<title>E_21&#45;&gt;T_20</title>
<path fill="none" stroke="black" d="M244.67,-147.17C251.99,-137.68 261.88,-124.86 270.36,-113.86"/>
<polygon fill="black" stroke="black" points="273.09,-116.06 276.43,-106 267.55,-111.78 273.09,-116.06"/>
</g>
<!-- S_10_1 -->
<g id="node12" class="node">
<title>S_10_1</title>
<ellipse fill="none" stroke="black" cx="288" cy="-18" rx="18" ry="18"/>
<text xml:space="preserve" text-anchor="middle" x="288" y="-12.95" font-family="Times,serif" font-size="14.00">S</text>
</g>
<!-- T_20&#45;&gt;S_10_1 -->
<g id="edge8" class="edge">
<title>T_20&#45;&gt;S_10_1</title>
<path fill="none" stroke="black" d="M288,-71.7C288,-64.41 288,-55.73 288,-47.54"/>
<polygon fill="black" stroke="black" points="291.5,-47.62 288,-37.62 284.5,-47.62 291.5,-47.62"/>
</g>
<!-- K_12_2 -->
<g id="node9" class="node">
<title>K_12_2</title>
<ellipse fill="none" stroke="black" cx="342" cy="-162" rx="18" ry="18"/>
<text xml:space="preserve" text-anchor="middle" x="342" y="-156.95" font-family="Times,serif" font-size="14.00">K</text>
</g>
<!-- E_02_1 -->
<g id="node10" class="node">
<title>E_02_1</title>
<ellipse fill="none" stroke="black" cx="342" cy="-90" rx="18" ry="18"/>
<text xml:space="preserve" text-anchor="middle" x="342" y="-84.95" font-family="Times,serif" font-size="14.00">E</text>
</g>
<!-- K_12_2&#45;&gt;E_02_1 -->
<g id="edge6" class="edge">
<title>K_12_2&#45;&gt;E_02_1</title>
<path fill="none" stroke="black" d="M342,-143.7C342,-136.41 342,-127.73 342,-119.54"/>
<polygon fill="black" stroke="black" points="345.5,-119.62 342,-109.62 338.5,-119.62 345.5,-119.62"/>
</g>
<!-- L_22_1 -->
<g id="node15" class="node">
<title>L_22_1</title>
<ellipse fill="none" stroke="black" cx="396" cy="-90" rx="18" ry="18"/>
<text xml:space="preserve" text-anchor="middle" x="396" y="-84.95" font-family="Times,serif" font-size="14.00">L</text>
</g>
<!-- K_12_2&#45;&gt;L_22_1 -->
<g id="edge18" class="edge">
<title>K_12_2&#45;&gt;L_22_1</title>
<path fill="none" stroke="black" d="M352.67,-147.17C359.99,-137.68 369.88,-124.86 378.36,-113.86"/>
<polygon fill="black" stroke="black" points="381.09,-116.06 384.43,-106 375.55,-111.78 381.09,-116.06"/>
</g>
<!-- E_01_2 -->
<g id="node14" class="node">
<title>E_01_2</title>
<ellipse fill="none" stroke="black" cx="342" cy="-18" rx="18" ry="18"/>
<text xml:space="preserve" text-anchor="middle" x="342" y="-12.95" font-family="Times,serif" font-size="14.00">E</text>
</g>
<!-- E_02_1&#45;&gt;E_01_2 -->
<g id="edge10" class="edge">
<title>E_02_1&#45;&gt;E_01_2</title>
<path fill="none" stroke="black" d="M342,-71.7C342,-64.41 342,-55.73 342,-47.54"/>
<polygon fill="black" stroke="black" points="345.5,-47.62 342,-37.62 338.5,-47.62 345.5,-47.62"/>
</g>
<!-- G_11 -->
<g id="node11" class="node">
<title>G_11</title>
<ellipse fill="none" stroke="black" cx="207" cy="-234" rx="18" ry="18"/>
<text xml:space="preserve" text-anchor="middle" x="207" y="-228.95" font-family="Times,serif" font-size="14.00">G</text>
</g>
<!-- G_11&#45;&gt;S_10_2 -->
<g id="edge14" class="edge">
<title>G_11&#45;&gt;S_10_2</title>
<path fill="none" stroke="black" d="M191.25,-224.83C168.28,-212.93 125.35,-190.66 97.75,-176.35"/>
<polygon fill="black" stroke="black" points="99.48,-173.31 88.99,-171.81 96.26,-179.52 99.48,-173.31"/>
</g>
<!-- G_11&#45;&gt;E_01 -->
<g id="edge19" class="edge">
<title>G_11&#45;&gt;E_01</title>
<path fill="none" stroke="black" d="M200.74,-216.76C197.64,-208.72 193.81,-198.81 190.3,-189.69"/>
<polygon fill="black" stroke="black" points="193.64,-188.63 186.77,-180.56 187.11,-191.15 193.64,-188.63"/>
</g>
<!-- G_11&#45;&gt;E_21 -->
<g id="edge7" class="edge">
<title>G_11&#45;&gt;E_21</title>
<path fill="none" stroke="black" d="M213.26,-216.76C216.36,-208.72 220.19,-198.81 223.7,-189.69"/>
<polygon fill="black" stroke="black" points="226.89,-191.15 227.23,-180.56 220.36,-188.63 226.89,-191.15"/>
</g>
<!-- G_11&#45;&gt;K_12_2 -->
<g id="edge17" class="edge">
<title>G_11&#45;&gt;K_12_2</title>
<path fill="none" stroke="black" d="M222.75,-224.83C245.72,-212.93 288.65,-190.66 316.25,-176.35"/>
<polygon fill="black" stroke="black" points="317.74,-179.52 325.01,-171.81 314.52,-173.31 317.74,-179.52"/>
</g>
<!-- E_01_1 -->
<g id="node20" class="node">
<title>E_01_1</title>
<ellipse fill="none" stroke="black" cx="72" cy="-18" rx="18" ry="18"/>
<text xml:space="preserve" text-anchor="middle" x="72" y="-12.95" font-family="Times,serif" font-size="14.00">E</text>
</g>
<!-- T_00_1&#45;&gt;E_01_1 -->
<g id="edge15" class="edge">
<title>T_00_1&#45;&gt;E_01_1</title>
<path fill="none" stroke="black" d="M72,-71.7C72,-64.41 72,-55.73 72,-47.54"/>
<polygon fill="black" stroke="black" points="75.5,-47.62 72,-37.62 68.5,-47.62 75.5,-47.62"/>
</g>
<!-- E_21_2 -->
<g id="node16" class="node">
<title>E_21_2</title>
<ellipse fill="none" stroke="black" cx="396" cy="-18" rx="18" ry="18"/>
<text xml:space="preserve" text-anchor="middle" x="396" y="-12.95" font-family="Times,serif" font-size="14.00">E</text>
</g>
<!-- L_22_1&#45;&gt;E_21_2 -->
<g id="edge11" class="edge">
<title>L_22_1&#45;&gt;E_21_2</title>
<path fill="none" stroke="black" d="M396,-71.7C396,-64.41 396,-55.73 396,-47.54"/>
<polygon fill="black" stroke="black" points="399.5,-47.62 396,-37.62 392.5,-47.62 399.5,-47.62"/>
</g>
<!-- S_10 -->
<g id="node18" class="node">
<title>S_10</title>
<ellipse fill="none" stroke="black" cx="180" cy="-18" rx="18" ry="18"/>
<text xml:space="preserve" text-anchor="middle" x="180" y="-12.95" font-family="Times,serif" font-size="14.00">S</text>
</g>
<!-- T_00&#45;&gt;S_10 -->
<g id="edge12" class="edge">
<title>T_00&#45;&gt;S_10</title>
<path fill="none" stroke="black" d="M180,-71.7C180,-64.41 180,-55.73 180,-47.54"/>
<polygon fill="black" stroke="black" points="183.5,-47.62 180,-37.62 176.5,-47.62 183.5,-47.62"/>
</g>
</g>
</svg>
