<?xml version="1.0" encoding="UTF-8" standalone="no"?>
<!DOCTYPE svg PUBLIC "-//W3C//DTD SVG 1.1//EN"
 "http://www.w3.org/Graphics/SVG/1.1/DTD/svg11.dtd">
<!-- Generated by graphviz version 13.0.1 (20250615.1724)
 -->
<!-- Title: Matrix Pages: 1 -->
<svg width="151pt" height="154pt"
 viewBox="0.00 0.00 151.00 154.00" xmlns="http://www.w3.org/2000/svg" xmlns:xlink="http://www.w3.org/1999/xlink">
<g id="graph0" class="graph" transform="scale(1 1) rotate(0) translate(4 149.6)">
<title>Matrix</title>
<polygon fill="white" stroke="none" points="-4,4 -4,-149.6 147.2,-149.6 147.2,4 -4,4"/>
<!-- node00 -->
<g id="node1" class="node">
<title>node00</title>
<polygon fill="none" stroke="black" points="43.2,-145.6 0,-145.6 0,-102.4 43.2,-102.4 43.2,-145.6"/>
<text xml:space="preserve" text-anchor="middle" x="21.6" y="-116.25" font-family="Times,serif" font-size="20.00">T</text>
</g>
<!-- node01 -->
<g id="node2" class="node">
<title>node01</title>
<polygon fill="lightblue" stroke="black" points="93.2,-145.6 50,-145.6 50,-102.4 93.2,-102.4 93.2,-145.6"/>
<text xml:space="preserve" text-anchor="middle" x="71.6" y="-116.25" font-family="Times,serif" font-size="20.00">E</text>
</g>
<!-- node00&#45;&gt;node01 -->
<!-- node10 -->
<g id="node4" class="node">
<title>node10</title>
<polygon fill="none" stroke="black" points="43.2,-94.4 0,-94.4 0,-51.2 43.2,-51.2 43.2,-94.4"/>
<text xml:space="preserve" text-anchor="middle" x="21.6" y="-65.05" font-family="Times,serif" font-size="20.00">S</text>
</g>
<!-- node00&#45;&gt;node10 -->
<!-- node02 -->
<g id="node3" class="node">
<title>node02</title>
<polygon fill="lightblue" stroke="black" points="143.2,-145.6 100,-145.6 100,-102.4 143.2,-102.4 143.2,-145.6"/>
<text xml:space="preserve" text-anchor="middle" x="121.6" y="-116.25" font-family="Times,serif" font-size="20.00">E</text>
</g>
<!-- node01&#45;&gt;node02 -->
<!-- node11 -->
<g id="node5" class="node">
<title>node11</title>
<polygon fill="lightblue" stroke="black" points="93.2,-94.4 50,-94.4 50,-51.2 93.2,-51.2 93.2,-94.4"/>
<text xml:space="preserve" text-anchor="middle" x="71.6" y="-65.05" font-family="Times,serif" font-size="20.00">G</text>
</g>
<!-- node01&#45;&gt;node11 -->
<!-- node12 -->
<g id="node6" class="node">
<title>node12</title>
<polygon fill="lightblue" stroke="black" points="143.2,-94.4 100,-94.4 100,-51.2 143.2,-51.2 143.2,-94.4"/>
<text xml:space="preserve" text-anchor="middle" x="121.6" y="-65.05" font-family="Times,serif" font-size="20.00">K</text>
</g>
<!-- node02&#45;&gt;node12 -->
<!-- node10&#45;&gt;node11 -->
<!-- node20 -->
<g id="node7" class="node">
<title>node20</title>
<polygon fill="none" stroke="black" points="43.2,-43.2 0,-43.2 0,0 43.2,0 43.2,-43.2"/>
<text xml:space="preserve" text-anchor="middle" x="21.6" y="-13.85" font-family="Times,serif" font-size="20.00">T</text>
</g>
<!-- node10&#45;&gt;node20 -->
<!-- node11&#45;&gt;node12 -->
<!-- node21 -->
<g id="node8" class="node">
<title>node21</title>
<polygon fill="none" stroke="black" points="93.2,-43.2 50,-43.2 50,0 93.2,0 93.2,-43.2"/>
<text xml:space="preserve" text-anchor="middle" x="71.6" y="-13.85" font-family="Times,serif" font-size="20.00">E</text>
</g>
<!-- node11&#45;&gt;node21 -->
<!-- node22 -->
<g id="node9" class="node">
<title>node22</title>
<polygon fill="none" stroke="black" points="143.2,-43.2 100,-43.2 100,0 143.2,0 143.2,-43.2"/>
<text xml:space="preserve" text-anchor="middle" x="121.6" y="-13.85" font-family="Times,serif" font-size="20.00">L</text>
</g>
<!-- node12&#45;&gt;node22 -->
<!-- node20&#45;&gt;node21 -->
<!-- node21&#45;&gt;node22 -->
</g>
</svg>
