<?xml version="1.0" encoding="UTF-8" standalone="no"?>
<!DOCTYPE svg PUBLIC "-//W3C//DTD SVG 1.1//EN"
 "http://www.w3.org/Graphics/SVG/1.1/DTD/svg11.dtd">
<!-- Generated by graphviz version 13.0.1 (20250615.1724)
 -->
<!-- Title: G Pages: 1 -->
<svg width="422pt" height="260pt"
 viewBox="0.00 0.00 422.00 260.00" xmlns="http://www.w3.org/2000/svg" xmlns:xlink="http://www.w3.org/1999/xlink">
<g id="graph0" class="graph" transform="scale(1 1) rotate(0) translate(4 256)">
<title>G</title>
<polygon fill="white" stroke="none" points="-4,4 -4,-256 418,-256 418,4 -4,4"/>
<!-- T_00 -->
<g id="node1" class="node">
<title>T_00</title>
<ellipse fill="none" stroke="black" cx="180" cy="-234" rx="18" ry="18"/>
<text xml:space="preserve" text-anchor="middle" x="180" y="-228.95" font-family="Times,serif" font-size="14.00">T</text>
</g>
<!-- S_10 -->
<g id="node2" class="node">
<title>S_10</title>
<ellipse fill="none" stroke="black" cx="126" cy="-162" rx="18" ry="18"/>
<text xml:space="preserve" text-anchor="middle" x="126" y="-156.95" font-family="Times,serif" font-size="14.00">S</text>
</g>
<!-- T_00&#45;&gt;S_10 -->
<g id="edge1" class="edge">
<title>T_00&#45;&gt;S_10</title>
<path fill="none" stroke="black" d="M169.33,-219.17C162.01,-209.68 152.12,-196.86 143.64,-185.86"/>
<polygon fill="black" stroke="black" points="146.45,-183.78 137.57,-178 140.91,-188.06 146.45,-183.78"/>
</g>
<!-- E_01_1 -->
<g id="node3" class="node">
<title>E_01_1</title>
<ellipse fill="none" stroke="black" cx="234" cy="-162" rx="18" ry="18"/>
<text xml:space="preserve" text-anchor="middle" x="234" y="-156.95" font-family="Times,serif" font-size="14.00">E</text>
</g>
<!-- T_00&#45;&gt;E_01_1 -->
<g id="edge3" class="edge">
<title>T_00&#45;&gt;E_01_1</title>
<path fill="none" stroke="black" d="M190.67,-219.17C197.99,-209.68 207.88,-196.86 216.36,-185.86"/>
<polygon fill="black" stroke="black" points="219.09,-188.06 222.43,-178 213.55,-183.78 219.09,-188.06"/>
</g>
<!-- T_20 -->
<g id="node8" class="node">
<title>T_20</title>
<ellipse fill="none" stroke="black" cx="45" cy="-90" rx="18" ry="18"/>
<text xml:space="preserve" text-anchor="middle" x="45" y="-84.95" font-family="Times,serif" font-size="14.00">T</text>
</g>
<!-- S_10&#45;&gt;T_20 -->
<g id="edge6" class="edge">
<title>S_10&#45;&gt;T_20</title>
<path fill="none" stroke="black" d="M112.62,-149.44C100.2,-138.7 81.46,-122.51 66.86,-109.89"/>
<polygon fill="black" stroke="black" points="69.4,-107.46 59.54,-103.57 64.82,-112.75 69.4,-107.46"/>
</g>
<!-- G_11 -->
<g id="node10" class="node">
<title>G_11</title>
<ellipse fill="none" stroke="black" cx="126" cy="-90" rx="18" ry="18"/>
<text xml:space="preserve" text-anchor="middle" x="126" y="-84.95" font-family="Times,serif" font-size="14.00">G</text>
</g>
<!-- S_10&#45;&gt;G_11 -->
<g id="edge8" class="edge">
<title>S_10&#45;&gt;G_11</title>
<path fill="none" stroke="black" d="M126,-143.7C126,-136.41 126,-127.73 126,-119.54"/>
<polygon fill="black" stroke="black" points="129.5,-119.62 126,-109.62 122.5,-119.62 129.5,-119.62"/>
</g>
<!-- E_02 -->
<g id="node4" class="node">
<title>E_02</title>
<ellipse fill="none" stroke="black" cx="234" cy="-90" rx="18" ry="18"/>
<text xml:space="preserve" text-anchor="middle" x="234" y="-84.95" font-family="Times,serif" font-size="14.00">E</text>
</g>
<!-- E_01_1&#45;&gt;E_02 -->
<g id="edge2" class="edge">
<title>E_01_1&#45;&gt;E_02</title>
<path fill="none" stroke="black" d="M234,-143.7C234,-136.41 234,-127.73 234,-119.54"/>
<polygon fill="black" stroke="black" points="237.5,-119.62 234,-109.62 230.5,-119.62 237.5,-119.62"/>
</g>
<!-- G_11_1 -->
<g id="node5" class="node">
<title>G_11_1</title>
<ellipse fill="none" stroke="black" cx="315" cy="-90" rx="18" ry="18"/>
<text xml:space="preserve" text-anchor="middle" x="315" y="-84.95" font-family="Times,serif" font-size="14.00">G</text>
</g>
<!-- E_01_1&#45;&gt;G_11_1 -->
<g id="edge12" class="edge">
<title>E_01_1&#45;&gt;G_11_1</title>
<path fill="none" stroke="black" d="M247.38,-149.44C259.8,-138.7 278.54,-122.51 293.14,-109.89"/>
<polygon fill="black" stroke="black" points="295.18,-112.75 300.46,-103.57 290.6,-107.46 295.18,-112.75"/>
</g>
<!-- K_12_2 -->
<g id="node15" class="node">
<title>K_12_2</title>
<ellipse fill="none" stroke="black" cx="234" cy="-18" rx="18" ry="18"/>
<text xml:space="preserve" text-anchor="middle" x="234" y="-12.95" font-family="Times,serif" font-size="14.00">K</text>
</g>
<!-- E_02&#45;&gt;K_12_2 -->
<g id="edge14" class="edge">
<title>E_02&#45;&gt;K_12_2</title>
<path fill="none" stroke="black" d="M234,-71.7C234,-64.41 234,-55.73 234,-47.54"/>
<polygon fill="black" stroke="black" points="237.5,-47.62 234,-37.62 230.5,-47.62 237.5,-47.62"/>
</g>
<!-- S_10_1 -->
<g id="node6" class="node">
<title>S_10_1</title>
<ellipse fill="none" stroke="black" cx="288" cy="-18" rx="18" ry="18"/>
<text xml:space="preserve" text-anchor="middle" x="288" y="-12.95" font-family="Times,serif" font-size="14.00">S</text>
</g>
<!-- G_11_1&#45;&gt;S_10_1 -->
<g id="edge4" class="edge">
<title>G_11_1&#45;&gt;S_10_1</title>
<path fill="none" stroke="black" d="M308.74,-72.76C305.64,-64.72 301.81,-54.81 298.3,-45.69"/>
<polygon fill="black" stroke="black" points="301.64,-44.63 294.77,-36.56 295.11,-47.15 301.64,-44.63"/>
</g>
<!-- K_12_1 -->
<g id="node7" class="node">
<title>K_12_1</title>
<ellipse fill="none" stroke="black" cx="342" cy="-18" rx="18" ry="18"/>
<text xml:space="preserve" text-anchor="middle" x="342" y="-12.95" font-family="Times,serif" font-size="14.00">K</text>
</g>
<!-- G_11_1&#45;&gt;K_12_1 -->
<g id="edge5" class="edge">
<title>G_11_1&#45;&gt;K_12_1</title>
<path fill="none" stroke="black" d="M321.26,-72.76C324.36,-64.72 328.19,-54.81 331.7,-45.69"/>
<polygon fill="black" stroke="black" points="334.89,-47.15 335.23,-36.56 328.36,-44.63 334.89,-47.15"/>
</g>
<!-- E_21_2 -->
<g id="node14" class="node">
<title>E_21_2</title>
<ellipse fill="none" stroke="black" cx="396" cy="-18" rx="18" ry="18"/>
<text xml:space="preserve" text-anchor="middle" x="396" y="-12.95" font-family="Times,serif" font-size="14.00">E</text>
</g>
<!-- G_11_1&#45;&gt;E_21_2 -->
<g id="edge13" class="edge">
<title>G_11_1&#45;&gt;E_21_2</title>
<path fill="none" stroke="black" d="M328.38,-77.44C340.8,-66.7 359.54,-50.51 374.14,-37.89"/>
<polygon fill="black" stroke="black" points="376.18,-40.75 381.46,-31.57 371.6,-35.46 376.18,-40.75"/>
</g>
<!-- E_21 -->
<g id="node9" class="node">
<title>E_21</title>
<ellipse fill="none" stroke="black" cx="18" cy="-18" rx="18" ry="18"/>
<text xml:space="preserve" text-anchor="middle" x="18" y="-12.95" font-family="Times,serif" font-size="14.00">E</text>
</g>
<!-- T_20&#45;&gt;E_21 -->
<g id="edge7" class="edge">
<title>T_20&#45;&gt;E_21</title>
<path fill="none" stroke="black" d="M38.74,-72.76C35.64,-64.72 31.81,-54.81 28.3,-45.69"/>
<polygon fill="black" stroke="black" points="31.64,-44.63 24.77,-36.56 25.11,-47.15 31.64,-44.63"/>
</g>
<!-- E_21_1 -->
<g id="node11" class="node">
<title>E_21_1</title>
<ellipse fill="none" stroke="black" cx="72" cy="-18" rx="18" ry="18"/>
<text xml:space="preserve" text-anchor="middle" x="72" y="-12.95" font-family="Times,serif" font-size="14.00">E</text>
</g>
<!-- G_11&#45;&gt;E_21_1 -->
<g id="edge9" class="edge">
<title>G_11&#45;&gt;E_21_1</title>
<path fill="none" stroke="black" d="M115.33,-75.17C108.01,-65.68 98.12,-52.86 89.64,-41.86"/>
<polygon fill="black" stroke="black" points="92.45,-39.78 83.57,-34 86.91,-44.06 92.45,-39.78"/>
</g>
<!-- K_12 -->
<g id="node12" class="node">
<title>K_12</title>
<ellipse fill="none" stroke="black" cx="126" cy="-18" rx="18" ry="18"/>
<text xml:space="preserve" text-anchor="middle" x="126" y="-12.95" font-family="Times,serif" font-size="14.00">K</text>
</g>
<!-- G_11&#45;&gt;K_12 -->
<g id="edge10" class="edge">
<title>G_11&#45;&gt;K_12</title>
<path fill="none" stroke="black" d="M126,-71.7C126,-64.41 126,-55.73 126,-47.54"/>
<polygon fill="black" stroke="black" points="129.5,-47.62 126,-37.62 122.5,-47.62 129.5,-47.62"/>
</g>
<!-- E_01 -->
<g id="node13" class="node">
<title>E_01</title>
<ellipse fill="none" stroke="black" cx="180" cy="-18" rx="18" ry="18"/>
<text xml:space="preserve" text-anchor="middle" x="180" y="-12.95" font-family="Times,serif" font-size="14.00">E</text>
</g>
<!-- G_11&#45;&gt;E_01 -->
<g id="edge11" class="edge">
<title>G_11&#45;&gt;E_01</title>
<path fill="none" stroke="black" d="M136.67,-75.17C143.99,-65.68 153.88,-52.86 162.36,-41.86"/>
<polygon fill="black" stroke="black" points="165.09,-44.06 168.43,-34 159.55,-39.78 165.09,-44.06"/>
</g>
</g>
</svg>
